<svg width="861" height="633" viewBox="0 0 861 633" fill="none" xmlns="http://www.w3.org/2000/svg">
<path d="M101.305 604.557C100.565 604.591 99.8324 604.396 99.2064 604C98.5805 603.604 98.0915 603.025 97.8057 602.341C97.5199 601.658 97.4511 600.903 97.6086 600.179C97.7662 599.455 98.1424 598.797 98.6864 598.294C98.7775 597.932 98.8429 597.672 98.934 597.31C98.2258 595.511 96.9964 593.964 95.4033 592.868C93.8103 591.772 91.9263 591.177 89.9928 591.159C88.0593 591.14 86.1644 591.7 84.551 592.766C82.9376 593.831 81.6792 595.355 80.9372 597.14C76.6549 607.163 71.1126 617.54 73.8689 628.58C55.6629 589.995 61.8543 541.998 88.7603 509C96.1974 504.904 102.225 497.625 103.795 489.173C100.114 490.42 95.5249 487.427 98.2923 483.549C99.4919 482.068 100.703 480.598 101.903 479.116C87.9208 464.225 71.2618 487.628 86.6516 507.725C81.6172 514.037 77.2564 520.858 73.6403 528.077C74.4754 520.412 73.4787 512.658 70.7323 505.453C67.9488 498.738 62.7317 493.083 58.1373 487.278C52.5512 480.205 41.0543 483.468 40.3026 492.443C45.4579 494.138 46.1276 501.585 40.2306 502.604C41.7752 519.302 52.6841 534.647 67.7089 541.97C62.1604 557.538 59.9938 574.11 61.3535 590.582C58.7014 571.332 38.0378 566.66 23.5949 559.009C22.6757 558.42 21.6047 558.11 20.5127 558.119C19.4208 558.128 18.3549 558.454 17.4452 559.058C16.5356 559.663 15.8214 560.518 15.3898 561.522C14.9582 562.525 14.8279 563.632 15.0148 564.708C17.0082 565.518 18.9162 566.525 20.7106 567.713C21.5515 568.278 22.1969 569.089 22.5584 570.036C22.9199 570.982 22.9798 572.018 22.7299 572.999C22.48 573.981 21.9326 574.862 21.1626 575.521C20.3926 576.179 19.4378 576.583 18.429 576.678C25.7092 594.696 44.5313 606.795 63.8627 606.727C65.7205 614.8 68.4122 622.658 71.8944 630.174H100.586C100.689 629.855 100.782 629.526 100.874 629.207C98.2184 629.374 95.5522 629.216 92.935 628.734C99.9614 620.415 105.395 616.171 101.306 604.557L101.305 604.557Z" fill="#F2F2F2"/>
<path d="M253.397 607.84H265.228L270.856 562.209L253.395 562.21L253.397 607.84Z" fill="#FFB6B6"/>
<path d="M269.164 608.905V600.885L266.054 601.075L253.394 601.825L250.464 602.005L248.104 630.305H256.504L256.774 628.875L257.994 622.375L261.144 628.875L261.834 630.305H284.104C285.429 630.297 286.698 629.766 287.634 628.828C288.57 627.89 289.098 626.62 289.104 625.295C290.044 620.905 271.524 611.415 269.164 608.905Z" fill="white"/>
<path d="M114.802 594.963L125.091 600.801L152.505 563.891L137.318 555.275L114.802 594.963Z" fill="#FFB6B6"/>
<path d="M127.994 603.665L131.944 596.695L129.164 595.325L117.774 589.735L115.134 588.435L99.1142 611.885L106.414 616.035L111.634 609.875L111.054 618.665L129.244 628.995H129.254L130.424 629.655C131.579 630.308 132.946 630.475 134.225 630.121C135.504 629.767 136.59 628.919 137.244 627.765C140.224 624.405 128.804 607.025 127.994 603.665Z" fill="white"/>
<path d="M297.126 229.398C295.615 229.629 294.173 230.185 292.899 231.028C291.625 231.871 290.549 232.981 289.746 234.281C288.943 235.581 288.432 237.039 288.248 238.556C288.064 240.073 288.212 241.611 288.681 243.065L270.578 258.734L277.417 272.057L302.671 249.571C305.06 248.599 307.009 246.785 308.149 244.472C309.29 242.159 309.542 239.508 308.858 237.021C308.175 234.535 306.603 232.385 304.441 230.98C302.278 229.575 299.675 229.012 297.126 229.398Z" fill="#FFB6B6"/>
<path d="M270.564 256.775C263.284 259.335 248.984 267.695 242.464 271.965C240.074 268.635 226.784 254.145 215.294 248.585C215.294 248.575 215.284 248.585 215.284 248.585C214.494 248.205 213.714 247.865 212.944 247.565C211.164 246.85 209.272 246.457 207.354 246.405C206.504 246.4 205.658 246.522 204.844 246.765C203.988 247.016 203.187 247.426 202.484 247.975C200.614 249.415 199.194 251.925 198.394 255.805C198.301 257.646 198.542 259.489 199.104 261.245C202.304 271.855 214.944 283.705 219.414 291.345C219.854 292.525 224.244 304.145 231.174 308.265C231.539 308.486 231.916 308.687 232.304 308.865C232.734 308.925 233.164 308.975 233.614 308.995H233.624C234.326 309.045 235.031 309.055 235.734 309.025C236.094 309.015 236.464 308.985 236.834 308.955C236.914 308.945 236.984 308.945 237.064 308.935C239.373 308.68 241.649 308.184 243.854 307.455C244.104 307.375 244.354 307.295 244.604 307.205C246.5 306.559 248.359 305.811 250.174 304.965C251.224 304.485 252.264 303.965 253.304 303.425C254.564 302.765 255.824 302.065 257.054 301.335C258.114 300.725 259.154 300.085 260.174 299.425V299.415C260.414 299.275 260.654 299.115 260.894 298.945H260.904C270.024 293.015 277.464 286.125 278.894 283.275C279.962 281.685 280.829 279.969 281.474 278.165L270.564 256.775Z" fill="white"/>
<path d="M236.676 318.368C236.676 318.368 261.746 346.577 255.444 352.878C249.143 359.18 239.336 360.835 239.336 360.835L227.347 359.911L236.676 318.368Z" fill="white"/>
<path d="M205.921 242.696C238.256 261.615 249.129 279.688 234.175 316.057L205.921 242.696Z" fill="white"/>
<path d="M176.932 393.941C174.309 392.721 167.793 491.16 167.261 493.633L129.896 563.269L183.08 587.109L218.05 465.687L223.878 510.371L216.107 581.281L250.484 589.595L274.262 587.896L257.748 386.028L226.411 329.207L176.932 393.941Z" fill="white"/>
<path d="M203.133 245.485C247.038 278.173 236.318 278.755 236.675 329.208L257.596 385.118C257.596 385.118 183.843 413.682 176.281 394.777C168.718 375.871 203.133 245.485 203.133 245.485Z" fill="#9EBF26"/>
<path d="M237.244 313.835C237.154 313.515 237.044 313.145 236.924 312.755V312.745C236.734 312.115 236.514 311.425 236.254 310.635C236.094 310.135 235.924 309.595 235.734 309.025C235.614 308.665 235.494 308.295 235.364 307.905C231.844 297.275 224.744 277.455 216.124 255.545V255.535C215.084 252.905 214.024 250.248 212.944 247.565C212.844 247.325 212.754 247.075 212.654 246.835C212.224 245.765 211.784 244.685 211.344 243.605L198.714 230.975L191.904 226.535L176.904 240.385C176.904 240.385 176.914 240.625 176.934 241.095C177.144 245.365 178.174 268.425 178.304 295.685C178.334 302.555 178.314 309.695 178.194 316.865V317.055C178.164 318.935 178.194 320.395 178.284 321.575C178.327 322.414 178.424 323.249 178.574 324.075C179.134 327.155 180.164 327.875 180.714 334.285C180.714 334.285 168.914 349.495 175.764 362.515C176.307 362.596 176.856 362.63 177.404 362.615C179.824 362.655 185.464 362.505 200.974 362.495C203.664 362.475 206.644 362.475 209.954 362.485C231.644 362.485 219.954 349.935 231.544 338.505C231.794 338.255 232.044 338.015 232.314 337.775C233.136 337.031 234.005 336.339 234.914 335.705L237.474 327.755L237.484 327.505L237.544 324.835L237.764 315.975C237.651 315.248 237.477 314.533 237.244 313.835Z" fill="white"/>
<path d="M183.259 274.171L179.814 295.671L203.133 305.289L183.259 274.171Z" fill="black"/>
<path d="M217.7 179.643C243.786 194.487 222.371 233.654 195.798 219.707C169.712 204.863 191.128 165.697 217.7 179.643Z" fill="#FFB6B6"/>
<path d="M168.496 315.512C182.328 331.814 205.901 334.167 223.803 323.228L168.496 315.512Z" fill="black"/>
<path d="M231.649 187.874C229.821 190.251 226.002 189.136 218.524 190.833C218.54 188.298 218.247 185.77 217.652 183.307C217.095 186.357 215.876 189.249 214.08 191.777C207.586 192.497 215.546 212.224 212.221 226.729C207.938 196.129 198.927 204.146 203.479 210.215C206.393 214.101 204.45 225.757 195.708 219.929C181.284 226.785 160.739 192.731 183.509 176.76C183.102 168.127 192.707 166.764 198.622 169.418C212.977 158.724 229.377 172.426 231.649 187.874Z" fill="#2F2E41"/>
<path d="M246.381 299.307C253.796 299.16 293.621 298.017 300.152 298.298C300.521 297.004 312.902 312.87 313.203 312.969C313.403 313.18 313.55 313.438 313.63 313.718C313.709 313.999 313.72 314.295 313.66 314.58C313.601 314.866 313.473 315.133 313.288 315.359C313.103 315.584 312.866 315.762 312.598 315.876C311.87 316.318 247.666 315.131 246.888 315.286C246.552 315.28 246.224 315.18 245.942 314.996C245.66 314.813 245.435 314.553 245.295 314.247L244.865 313.286C244.821 311.642 244.283 303.238 244.766 301.801C244.647 301.532 244.597 301.237 244.621 300.943C244.645 300.649 244.741 300.366 244.901 300.119C245.061 299.871 245.28 299.668 245.539 299.526C245.797 299.385 246.087 299.309 246.381 299.307Z" fill="#3F3D56"/>
<path d="M244.866 313.285C245.242 314.19 245.724 315.327 246.888 315.286L311.92 316.016C312.228 316.012 312.529 315.93 312.796 315.776C313.062 315.623 313.285 315.403 313.442 315.139C313.599 314.874 313.686 314.574 313.693 314.266C313.701 313.959 313.629 313.655 313.485 313.383L244.866 313.285Z" fill="black"/>
<path d="M299.848 298.103C300.548 296.893 317.934 210.865 319.385 210.145L331.256 195.624L332.316 194.826C333.792 194.016 337.331 194.564 337.012 196.817C334.223 210.187 316.287 286.336 315.893 298.208L313.734 313.332C313.696 313.589 313.604 313.836 313.464 314.055C313.325 314.275 313.141 314.463 312.924 314.607C312.707 314.751 312.463 314.848 312.206 314.892C311.95 314.936 311.687 314.926 311.435 314.862C310.816 314.795 310.225 314.568 309.72 314.204C309.216 313.839 308.815 313.349 308.557 312.783C308.395 312.249 299.035 298.413 299.848 298.103Z" fill="#3F3D56"/>
<path d="M331.258 195.625L308.555 312.786C309.314 314.707 312.867 316.054 313.695 313.533C313.709 313.529 336.986 196.889 337.009 196.82C337.257 194.013 332.619 193.924 331.258 195.625Z" fill="black"/>
<path d="M330.574 200.416L319.044 216.487L306.102 277.953L312.118 283.201L330.574 200.416Z" fill="#9EBF26"/>
<path d="M253.304 303.425C253.064 301.565 252.604 299.855 251.254 299.985C249.264 299.975 249.694 302.685 250.174 304.965C250.43 305.865 250.584 306.791 250.634 307.725L253.824 307.595C253.54 306.221 253.366 304.827 253.304 303.425Z" fill="#2F2E41"/>
<path d="M272.104 302.985C272.084 302.455 272.114 301.775 272.044 301.135C271.934 300.075 271.574 299.155 270.364 299.225C270.141 299.222 269.919 299.267 269.714 299.355C268.424 299.935 268.954 302.285 268.934 303.425L269.974 303.385L272.124 303.305C272.114 303.205 272.104 303.095 272.104 302.985Z" fill="#2F2E41"/>
<path d="M278.474 302.725C278.424 301.325 278.674 298.855 276.734 298.965C274.634 299.005 275.324 301.865 275.304 303.175L276.334 303.135L278.494 303.045C278.484 302.945 278.474 302.835 278.474 302.725Z" fill="#2F2E41"/>
<path d="M284.844 302.475C284.794 301.065 285.044 298.595 283.104 298.715C281.004 298.755 281.694 301.615 281.674 302.915L282.714 302.875L284.864 302.795C284.854 302.695 284.844 302.585 284.844 302.475Z" fill="#2F2E41"/>
<path d="M291.214 302.215C291.164 300.815 291.414 298.345 289.474 298.455C287.374 298.505 288.064 301.355 288.044 302.665L289.074 302.625L291.234 302.535C291.224 302.435 291.214 302.325 291.214 302.215Z" fill="#2F2E41"/>
<path d="M297.584 301.965C297.544 300.705 297.734 298.605 296.394 298.255H296.384C296.209 298.206 296.026 298.189 295.844 298.205C295.695 298.203 295.547 298.223 295.404 298.265H295.394C293.854 298.695 294.434 301.205 294.414 302.405L295.454 302.365L297.604 302.285C297.594 302.185 297.584 302.075 297.584 301.965Z" fill="#2F2E41"/>
<path d="M260.174 299.425V299.415C260.158 299.267 260.131 299.12 260.094 298.975C259.934 298.125 259.524 297.465 258.494 297.525C257.484 297.545 257.124 298.205 257.014 299.045C256.962 299.808 256.975 300.574 257.054 301.335C257.064 301.485 257.064 301.615 257.064 301.735L260.254 301.605C260.204 301.045 260.254 300.205 260.174 299.425Z" fill="#2F2E41"/>
<path d="M266.494 298.815C266.334 297.925 265.924 297.205 264.864 297.275C263.814 297.295 263.464 298.015 263.374 298.895C263.346 299.755 263.366 300.617 263.434 301.475L266.624 301.345C266.564 300.705 266.644 299.675 266.494 298.815Z" fill="#2F2E41"/>
<path d="M272.874 298.665C272.734 297.725 272.344 296.955 271.234 297.015C270.144 297.035 269.814 297.805 269.734 298.735C269.712 298.941 269.706 299.148 269.714 299.355C269.724 300.045 269.814 300.745 269.804 301.225L272.044 301.135L272.994 301.095C272.934 300.475 273.014 299.505 272.874 298.665Z" fill="#2F2E41"/>
<path d="M258.434 303.265C256.334 303.305 257.014 306.165 257.004 307.465L260.194 307.345C260.074 306.035 260.534 303.135 258.434 303.265Z" fill="#2F2E41"/>
<path d="M264.804 303.005C262.704 303.045 263.384 305.905 263.374 307.215L266.564 307.085C266.444 305.785 266.904 302.885 264.804 303.005Z" fill="#2F2E41"/>
<path d="M272.104 302.985C271.831 302.802 271.502 302.72 271.174 302.755C270.936 302.742 270.698 302.793 270.487 302.904C270.276 303.015 270.099 303.181 269.974 303.385C269.404 304.305 269.754 306.025 269.744 306.955L272.934 306.835C272.834 305.775 273.124 303.655 272.104 302.985Z" fill="#2F2E41"/>
<path d="M278.474 302.725C278.201 302.541 277.872 302.459 277.544 302.495C277.303 302.481 277.063 302.534 276.85 302.646C276.637 302.759 276.458 302.928 276.334 303.135C275.784 304.065 276.124 305.775 276.114 306.705L279.304 306.575C279.204 305.525 279.494 303.415 278.474 302.725Z" fill="#2F2E41"/>
<path d="M284.844 302.475C284.571 302.292 284.242 302.21 283.914 302.245C283.676 302.232 283.438 302.283 283.227 302.394C283.016 302.505 282.839 302.671 282.714 302.875C282.144 303.795 282.494 305.515 282.484 306.445L285.674 306.325C285.574 305.265 285.864 303.145 284.844 302.475Z" fill="#2F2E41"/>
<path d="M291.214 302.215C290.941 302.031 290.612 301.949 290.284 301.985C290.043 301.97 289.803 302.022 289.589 302.135C289.376 302.248 289.197 302.417 289.074 302.625C288.524 303.555 288.864 305.265 288.854 306.195L292.044 306.065C291.944 305.015 292.234 302.905 291.214 302.215Z" fill="#2F2E41"/>
<path d="M297.584 301.965C297.311 301.782 296.982 301.7 296.654 301.735C296.416 301.72 296.178 301.771 295.966 301.883C295.755 301.994 295.578 302.16 295.454 302.365C294.894 303.295 295.234 305.005 295.224 305.935L298.414 305.815C298.314 304.755 298.604 302.645 297.584 301.965Z" fill="#2F2E41"/>
<path d="M164.717 165.546C158.909 201.254 127.779 158.979 113.142 194.119C108.54 206.845 116.436 215.949 121.431 226.512C122.571 235.193 111.278 239.597 110.095 247.588C109.765 265.908 139.321 264.787 147.583 253.229C156.073 241.129 145.935 224.896 151.038 211.909C158.21 193.878 187.378 193.744 189.919 172.767C184.998 165.759 171.765 157.733 164.717 165.546Z" fill="#2F2E41"/>
<path d="M439.669 630.562C438.902 632.835 0.827881 632.835 3.05176e-05 630.567C0.766351 628.289 438.84 628.289 439.669 630.562Z" fill="#CCCCCC"/>
<path d="M188.244 169.035C188.054 169.115 187.864 169.195 187.694 169.285H187.684C187.524 169.365 187.364 169.445 187.204 169.535C187.184 169.545 187.174 169.555 187.154 169.565C186.944 169.365 186.734 169.165 186.514 168.965C186.457 169.291 186.471 169.625 186.554 169.945L186.584 170.065C186.784 170.275 186.994 170.475 187.214 170.685C187.414 170.535 187.604 170.375 187.804 170.225C187.924 170.125 188.044 170.025 188.174 169.925C188.194 169.665 188.224 169.365 188.254 169.035H188.244ZM194.264 157.915C189.804 156.895 188.364 162.725 187.934 165.535C186.314 155.335 179.574 158.545 181.904 165.505C182.647 167.566 183.816 169.447 185.334 171.025C185.544 171.265 185.774 171.505 186.014 171.745C185.744 173.145 187.104 172.785 188.944 171.495C190.303 170.529 191.559 169.426 192.694 168.205C196.364 164.355 199.224 159.205 194.264 157.915ZM194.404 163.655C193.028 165.429 191.484 167.067 189.794 168.545C189.264 169.025 188.724 169.485 188.174 169.925C188.164 170.015 188.164 170.095 188.154 170.165C188.116 170.262 188.069 170.356 188.014 170.445C187.454 171.455 186.824 170.905 186.584 170.065C186.564 170.035 186.534 170.005 186.514 169.975C185.715 169.149 185.02 168.229 184.444 167.235C180.314 160.075 186.964 155.205 186.634 168.575C186.573 168.698 186.533 168.829 186.514 168.965C186.457 169.291 186.471 169.625 186.554 169.945L186.584 170.065C186.784 170.275 186.994 170.475 187.214 170.685C187.414 170.535 187.604 170.375 187.804 170.225C187.924 170.125 188.044 170.025 188.174 169.925C188.194 169.665 188.224 169.365 188.254 169.035V169.025C188.514 166.345 189.224 161.525 190.534 160.215C193.414 158.005 197.144 160.395 194.404 163.655ZM188.244 169.035C188.054 169.115 187.864 169.195 187.694 169.285H187.684C187.524 169.365 187.364 169.445 187.204 169.535C187.184 169.545 187.174 169.555 187.154 169.565C186.944 169.365 186.734 169.165 186.514 168.965C186.457 169.291 186.471 169.625 186.554 169.945L186.584 170.065C186.784 170.275 186.994 170.475 187.214 170.685C187.414 170.535 187.604 170.375 187.804 170.225C187.924 170.125 188.044 170.025 188.174 169.925C188.194 169.665 188.224 169.365 188.254 169.035H188.244Z" fill="#2F2E41"/>
<path d="M339.054 255.13C337.596 255.13 336.197 255.71 335.165 256.741C334.134 257.773 333.554 259.172 333.554 260.63V313.836H228.054C226.596 313.836 225.197 314.416 224.165 315.447C223.134 316.479 222.554 317.878 222.554 319.336C222.554 320.795 223.134 322.194 224.165 323.226C225.197 324.257 226.596 324.836 228.054 324.836H333.554V630.837H344.554V260.63C344.554 259.172 343.975 257.773 342.944 256.741C341.912 255.71 340.513 255.13 339.054 255.13Z" fill="#E6E6E6"/>
<path d="M247.938 310.257C246.913 309.124 245.655 308.227 244.249 307.628C242.843 307.03 241.324 306.743 239.797 306.79C238.27 306.836 236.771 307.213 235.404 307.895C234.037 308.578 232.835 309.549 231.88 310.742L208.829 304.27L201.48 317.319L234.161 326.001C236.288 327.458 238.876 328.085 241.435 327.762C243.993 327.439 246.345 326.189 248.043 324.248C249.741 322.307 250.668 319.811 250.649 317.233C250.63 314.654 249.665 312.172 247.938 310.257Z" fill="#FFB6B6"/>
<path d="M196.514 294.925C194.844 294.055 193.174 293.205 191.544 292.415C188.004 290.665 184.714 289.135 182.294 288.095C183.483 284.49 184.425 280.808 185.114 277.075C187.954 262.755 189.884 240.435 176.934 241.095C175.06 241.23 173.222 241.676 171.494 242.415C161.404 248.025 157.944 270.335 153.424 279.545C152.634 280.615 144.614 291.735 145.904 299.965C149.564 307.965 161.204 314.805 172.114 319.255L172.124 319.265C174.224 320.125 176.304 320.895 178.284 321.575C180.544 322.345 182.694 322.985 184.624 323.485C188.474 324.485 191.484 324.935 192.934 324.735C194.851 324.749 196.762 324.527 198.624 324.075L200.914 320.035L202.324 317.535L210.454 303.175C206.017 300.086 201.357 297.329 196.514 294.925Z" fill="white"/>
<path d="M697.824 364.615C674.964 373.945 649.124 381.055 620.044 385.435C601.143 388.23 582.086 389.847 562.984 390.275C546.264 390.695 528.658 390.318 510.164 389.145V23.055C510.167 21.2215 510.897 19.4639 512.195 18.1684C513.492 16.8728 515.251 16.1451 517.084 16.145L530.914 16.185H531.104L828.284 16.925H829.634L840.374 16.955C841.914 21.915 843.348 27.025 844.674 32.285C871.434 138.575 851.674 301.825 697.824 364.615Z" fill="#F2F2F2"/>
<path d="M576.452 170.218C576.629 182.33 557.603 182.331 557.782 170.218C557.605 158.106 576.63 158.106 576.452 170.218Z" fill="#9EBF26"/>
<path d="M740.754 185.335H560.564C559.828 185.335 559.122 185.627 558.602 186.148C558.082 186.668 557.789 187.374 557.789 188.11C557.789 188.846 558.082 189.552 558.602 190.072C559.122 190.593 559.828 190.885 560.564 190.885H740.754C744.404 190.945 744.314 185.275 740.754 185.335Z" fill="#CCCCCC"/>
<path d="M676.694 196.315H560.564C559.827 196.315 559.12 196.608 558.598 197.129C558.077 197.651 557.784 198.358 557.784 199.095C557.784 199.832 558.077 200.539 558.598 201.061C559.12 201.582 559.827 201.875 560.564 201.875H676.694C680.324 201.925 680.264 196.265 676.694 196.315Z" fill="#CCCCCC"/>
<path d="M740.754 102.835H560.564C559.827 102.835 559.12 103.128 558.598 103.649C558.077 104.171 557.784 104.878 557.784 105.615C557.784 106.352 558.077 107.059 558.598 107.581C559.12 108.102 559.827 108.395 560.564 108.395H740.754C744.404 108.445 744.314 102.785 740.754 102.835Z" fill="#CCCCCC"/>
<path d="M676.694 113.825H560.564C559.827 113.825 559.12 114.118 558.598 114.639C558.077 115.161 557.784 115.868 557.784 116.605C557.784 117.342 558.077 118.049 558.598 118.571C559.12 119.092 559.827 119.385 560.564 119.385H676.694C680.324 119.435 680.264 113.775 676.694 113.825Z" fill="#CCCCCC"/>
<path d="M676.694 125.335H560.564C559.827 125.335 559.12 125.628 558.598 126.149C558.077 126.671 557.784 127.378 557.784 128.115C557.784 128.852 558.077 129.559 558.598 130.081C559.12 130.602 559.827 130.895 560.564 130.895H676.694C680.324 130.945 680.264 125.285 676.694 125.335Z" fill="#CCCCCC"/>
<path d="M576.452 242.158C576.629 254.27 557.603 254.27 557.782 242.157C557.605 230.046 576.63 230.046 576.452 242.158Z" fill="#9EBF26"/>
<path d="M740.754 257.265H560.564C559.827 257.265 559.12 257.558 558.598 258.079C558.077 258.601 557.784 259.308 557.784 260.045C557.784 260.782 558.077 261.489 558.598 262.011C559.12 262.532 559.827 262.825 560.564 262.825H740.754C744.404 262.875 744.314 257.215 740.754 257.265Z" fill="#CCCCCC"/>
<path d="M676.694 268.255H560.564C559.827 268.255 559.12 268.548 558.598 269.069C558.077 269.591 557.784 270.298 557.784 271.035C557.784 271.772 558.077 272.479 558.598 273.001C559.12 273.522 559.827 273.815 560.564 273.815H676.694C680.324 273.865 680.264 268.205 676.694 268.255Z" fill="#CCCCCC"/>
<path d="M573.484 87.7987C573.66 99.8202 554.776 99.8203 554.953 87.7978C554.778 75.7771 573.661 75.777 573.484 87.7987Z" fill="#9EBF26"/>
<path d="M833.019 18.2689C831.585 16.8304 518.555 21.0357 518.911 16.814C517.371 15.222 841.602 11.5806 833.019 18.2689Z" fill="#CACACA"/>
<path d="M503.702 32.2944C512.62 32.2944 519.849 25.065 519.849 16.1472C519.849 7.22934 512.62 0 503.702 0C494.784 0 487.554 7.22934 487.554 16.1472C487.554 25.065 494.784 32.2944 503.702 32.2944Z" fill="#CACACA"/>
<path d="M844.407 32.2944C853.325 32.2944 860.555 25.065 860.555 16.1472C860.555 7.22934 853.325 0 844.407 0C835.489 0 828.26 7.22934 828.26 16.1472C828.26 25.065 835.489 32.2944 844.407 32.2944Z" fill="#CACACA"/>
<path d="M697.824 364.615C674.964 373.945 649.124 381.055 620.044 385.435C601.143 388.23 582.086 389.847 562.984 390.275C545.784 390.075 528.178 389.698 510.164 389.145V376.385C534.414 356.035 638.314 352.785 697.824 364.615Z" fill="#CACACA"/>
</svg>
